<?xml version="1.0" encoding="utf-8"?>
<!-- Generator: Adobe Illustrator 17.0.0, SVG Export Plug-In . SVG Version: 6.00 Build 0)  -->
<!DOCTYPE svg PUBLIC "-//W3C//DTD SVG 1.1 Tiny//EN" "http://www.w3.org/Graphics/SVG/1.1/DTD/svg11-tiny.dtd">
<svg version="1.1" baseProfile="tiny" id="图层_1"
	 xmlns="http://www.w3.org/2000/svg" xmlns:xlink="http://www.w3.org/1999/xlink" x="0px" y="0px" width="44px" height="44px"
	 viewBox="0 0 44 44" xml:space="preserve">
<path fill="none" stroke="#C81457" stroke-width="2" stroke-miterlimit="10" d="M26.677,37.809c2.522,0,5.258,0,8.629,0
	c2.788,0,5.16-1.249,4.78-4.414c-0.42-3.503-1.4-11.536-1.945-15.99c2.316-0.704,4.002-2.855,4.002-5.401c0,0-1.967,0-4.571,0
	c0.238-2.679-0.745-5.075-3.104-6.56c0,0-0.442,1.723-3.365,4.121c-0.582,0.478-1.141,0.896-1.665,1.261
	c-2.029-0.379-4.489-0.632-7.447-0.632c-2.861,0-5.235,0.237-7.198,0.596c-0.509-0.357-1.05-0.764-1.612-1.225
	c-2.922-2.398-3.364-4.121-3.364-4.121c-2.359,1.485-3.342,3.881-3.104,6.56c-2.604,0-4.571,0-4.571,0
	c0,2.546,1.686,4.697,4.002,5.401C5.6,21.859,4.619,29.892,4.199,33.395c-0.38,3.164,1.991,4.414,4.78,4.414c3.026,0,5.54,0,7.847,0
	H26.677z"/>
</svg>
